<svg width="44" height="37" viewBox="0 0 44 37" fill="none" xmlns="http://www.w3.org/2000/svg">
<path d="M43 20.7646V28.1764C43 31.3882 35.2572 35.5882 25.7059 35.5882C16.1546 35.5882 8.41174 31.3882 8.41174 28.1764V21.9999" stroke="#F9F9F9" stroke-width="2" stroke-linecap="round" stroke-linejoin="round"/>
<path d="M9.13818 22.6397C11.2752 25.476 17.8841 28.1368 25.7059 28.1368C35.2572 28.1368 43.0001 24.169 43.0001 20.7596C43.0001 18.8449 40.5616 16.7474 36.7347 15.2749" stroke="#F9F9F9" stroke-width="2" stroke-linecap="round" stroke-linejoin="round"/>
<path d="M35.5882 8.41174V15.8235C35.5882 19.0353 27.8454 23.2353 18.2941 23.2353C8.74282 23.2353 1 19.0353 1 15.8235V8.41174" stroke="#F9F9F9" stroke-width="2" stroke-linecap="round" stroke-linejoin="round"/>
<path fill-rule="evenodd" clip-rule="evenodd" d="M18.2941 15.784C27.8454 15.784 35.5882 11.8162 35.5882 8.40682C35.5882 4.99494 27.8454 1 18.2941 1C8.74282 1 1 4.99494 1 8.40682C1 11.8162 8.74282 15.784 18.2941 15.784Z" stroke="#F9F9F9" stroke-width="2" stroke-linecap="round" stroke-linejoin="round"/>
</svg>
