<svg width="342" height="49" viewBox="0 0 342 49" fill="none" xmlns="http://www.w3.org/2000/svg">
<path fill-rule="evenodd" clip-rule="evenodd" d="M39.3287 0V12.1422L23.5386 24.2844L7.73767 12.1422V0H39.3287Z" fill="#C8C8C8"/>
<path d="M44.3595 0V16.0063L23.1871 32.0126L2 16.0063V0" stroke="#C8C8C8" stroke-width="3" stroke-miterlimit="1.5"/>
<path fill-rule="evenodd" clip-rule="evenodd" d="M60.1699 48.6013V36.4591L44.3798 24.3169L28.5789 36.4591V48.6013H60.1699Z" fill="#C8C8C8"/>
<path d="M65.5382 48.6013V32.3201L44.3658 16.0389L23.1787 32.3201V48.6013" stroke="#C8C8C8" stroke-width="3" stroke-miterlimit="1.5"/>
<path fill-rule="evenodd" clip-rule="evenodd" d="M81.686 0V12.1422L65.8959 24.2844L50.095 12.1422V0H81.686Z" fill="#C8C8C8"/>
<path d="M86.7168 0V16.0063L65.5444 32.0126L44.3573 16.0063V0" stroke="#C8C8C8" stroke-width="3" stroke-miterlimit="1.5"/>
<path fill-rule="evenodd" clip-rule="evenodd" d="M102.527 48.6013V36.4591L86.7371 24.3169L70.9362 36.4591V48.6013H102.527Z" fill="#C8C8C8"/>
<path d="M107.896 48.6013V32.3201L86.7231 16.0389L65.536 32.3201V48.6013" stroke="#C8C8C8" stroke-width="3" stroke-miterlimit="1.5"/>
<path fill-rule="evenodd" clip-rule="evenodd" d="M123.959 0V12.1422L108.169 24.2844L92.3679 12.1422V0H123.959Z" fill="#C8C8C8"/>
<path d="M128.99 0V16.0063L107.817 32.0126L86.6302 16.0063V0" stroke="#C8C8C8" stroke-width="3" stroke-miterlimit="1.5"/>
<path fill-rule="evenodd" clip-rule="evenodd" d="M144.8 48.6013V36.4591L129.01 24.3169L113.209 36.4591V48.6013H144.8Z" fill="#C8C8C8"/>
<path d="M150.168 48.6013V32.3201L128.996 16.0389L107.809 32.3201V48.6013" stroke="#C8C8C8" stroke-width="3" stroke-miterlimit="1.5"/>
<path fill-rule="evenodd" clip-rule="evenodd" d="M166.316 0V12.1422L150.526 24.2844L134.725 12.1422V0H166.316Z" fill="#C8C8C8"/>
<path d="M171.347 0V16.0063L150.175 32.0126L128.988 16.0063V0" stroke="#C8C8C8" stroke-width="3" stroke-miterlimit="1.5"/>
<path fill-rule="evenodd" clip-rule="evenodd" d="M187.157 48.6013V36.4591L171.367 24.3169L155.566 36.4591V48.6013H187.157Z" fill="#C8C8C8"/>
<path d="M192.526 48.6013V32.3201L171.353 16.0389L150.166 32.3201V48.6013" stroke="#C8C8C8" stroke-width="3" stroke-miterlimit="1.5"/>
<path fill-rule="evenodd" clip-rule="evenodd" d="M208.329 0V12.1422L192.539 24.2844L176.738 12.1422V0H208.329Z" fill="#C8C8C8"/>
<path d="M213.36 0V16.0063L192.187 32.0126L171 16.0063V0" stroke="#C8C8C8" stroke-width="3" stroke-miterlimit="1.5"/>
<path fill-rule="evenodd" clip-rule="evenodd" d="M229.17 48.6013V36.4591L213.38 24.3169L197.579 36.4591V48.6013H229.17Z" fill="#C8C8C8"/>
<path d="M234.538 48.6013V32.3201L213.366 16.0389L192.179 32.3201V48.6013" stroke="#C8C8C8" stroke-width="3" stroke-miterlimit="1.5"/>
<path fill-rule="evenodd" clip-rule="evenodd" d="M250.686 0V12.1422L234.896 24.2844L219.095 12.1422V0H250.686Z" fill="#C8C8C8"/>
<path d="M255.717 0V16.0063L234.544 32.0126L213.357 16.0063V0" stroke="#C8C8C8" stroke-width="3" stroke-miterlimit="1.5"/>
<path fill-rule="evenodd" clip-rule="evenodd" d="M271.527 48.6013V36.4591L255.737 24.3169L239.936 36.4591V48.6013H271.527Z" fill="#C8C8C8"/>
<path d="M276.896 48.6013V32.3201L255.723 16.0389L234.536 32.3201V48.6013" stroke="#C8C8C8" stroke-width="3" stroke-miterlimit="1.5"/>
<path fill-rule="evenodd" clip-rule="evenodd" d="M292.959 0V12.1422L277.169 24.2844L261.368 12.1422V0H292.959Z" fill="#C8C8C8"/>
<path d="M297.99 0V16.0063L276.817 32.0126L255.63 16.0063V0" stroke="#C8C8C8" stroke-width="3" stroke-miterlimit="1.5"/>
<path fill-rule="evenodd" clip-rule="evenodd" d="M313.8 48.6013V36.4591L298.01 24.3169L282.209 36.4591V48.6013H313.8Z" fill="#C8C8C8"/>
<path d="M319.168 48.6013V32.3201L297.996 16.0389L276.809 32.3201V48.6013" stroke="#C8C8C8" stroke-width="3" stroke-miterlimit="1.5"/>
<path fill-rule="evenodd" clip-rule="evenodd" d="M335.316 0V12.1422L319.526 24.2844L303.725 12.1422V0H335.316Z" fill="#C8C8C8"/>
<path d="M340.347 0V16.0063L319.175 32.0126L297.988 16.0063V0" stroke="#C8C8C8" stroke-width="3" stroke-miterlimit="1.5"/>
<path fill-rule="evenodd" clip-rule="evenodd" d="M341 48.6013V36.4591V23.6842L324.566 36.4591V48.6013H341Z" fill="#C8C8C8"/>
<path d="M340.353 16.0389L319.166 32.3201V48.6013" stroke="#C8C8C8" stroke-width="3" stroke-miterlimit="1.5"/>
</svg>
