<svg width="15" height="8" viewBox="0 0 15 8" fill="none" xmlns="http://www.w3.org/2000/svg">
<path d="M12.3339 0.30938C12.5341 0.111182 12.8043 0 13.086 0C13.3676 0 13.6379 0.111182 13.838 0.30938C13.9368 0.406706 14.0153 0.522717 14.0689 0.65066C14.1224 0.778603 14.15 0.915923 14.15 1.05463C14.15 1.19333 14.1224 1.33065 14.0689 1.4586C14.0153 1.58654 13.9368 1.70255 13.838 1.79988L7.82781 7.69111C7.62722 7.88903 7.35678 8 7.075 8C6.79322 8 6.52278 7.88903 6.32219 7.69111L0.311987 1.79988C0.213176 1.70255 0.134706 1.58654 0.0811446 1.4586C0.0275831 1.33065 0 1.19333 0 1.05463C0 0.915923 0.0275831 0.778603 0.0811446 0.65066C0.134706 0.522717 0.213176 0.406706 0.311987 0.30938C0.512124 0.111182 0.782387 0 1.06403 0C1.34568 0 1.61594 0.111182 1.81608 0.30938L7.07731 5.1408L12.3339 0.30938Z" fill="#FB6535"/>
</svg>
