<svg width="18" height="16" viewBox="0 0 18 16" fill="none" xmlns="http://www.w3.org/2000/svg">
<path d="M9.496 10.456L7.464 8.448L7.488 8.424C8.88 6.872 9.872 5.088 10.456 3.2H12.8V1.6H7.2V0H5.6V1.6H0V3.192H8.936C8.4 4.736 7.552 6.2 6.4 7.48C5.656 6.656 5.04 5.752 4.552 4.8H2.952C3.536 6.104 4.336 7.336 5.336 8.448L1.264 12.464L2.4 13.6L6.4 9.6L8.888 12.088L9.496 10.456ZM14 6.4H12.4L8.8 16H10.4L11.296 13.6H15.096L16 16H17.6L14 6.4ZM11.904 12L13.2 8.536L14.496 12H11.904Z" fill="#FB6535"/>
</svg>
