<svg width="15" height="8" viewBox="0 0 15 8" fill="none" xmlns="http://www.w3.org/2000/svg">
<path d="M12.4049 0.30938C12.6062 0.111182 12.878 0 13.1612 0C13.4445 0 13.7163 0.111182 13.9176 0.30938C14.017 0.406706 14.0959 0.522717 14.1498 0.65066C14.2037 0.778603 14.2314 0.915923 14.2314 1.05463C14.2314 1.19333 14.2037 1.33065 14.1498 1.4586C14.0959 1.58654 14.017 1.70255 13.9176 1.79988L7.87284 7.69111C7.67109 7.88903 7.39909 8 7.1157 8C6.8323 8 6.5603 7.88903 6.35855 7.69111L0.313782 1.79988C0.214402 1.70255 0.135481 1.58654 0.0816114 1.4586C0.0277418 1.33065 0 1.19333 0 1.05463C0 0.915923 0.0277418 0.778603 0.0816114 0.65066C0.135481 0.522717 0.214402 0.406706 0.313782 0.30938C0.515069 0.111182 0.786887 0 1.07015 0C1.35342 0 1.62523 0.111182 1.82652 0.30938L7.11802 5.1408L12.4049 0.30938Z" fill="#FB7C35"/>
</svg>
