<svg width="41" height="40" viewBox="0 0 41 40" fill="none" xmlns="http://www.w3.org/2000/svg">
<path d="M20.8 0C9.75422 0 0.800049 8.95417 0.800049 20C0.800049 31.0458 9.75422 40 20.8 40C31.8459 40 40.8 31.0458 40.8 20C40.8 8.95417 31.8459 0 20.8 0ZM15.9042 28.2896H11.8542V15.2562H15.9042V28.2896ZM13.8542 13.6562C12.575 13.6562 11.748 12.75 11.748 11.6292C11.748 10.4854 12.6 9.60625 13.9063 9.60625C15.2125 9.60625 16.0125 10.4854 16.0375 11.6292C16.0375 12.75 15.2125 13.6562 13.8542 13.6562ZM30.6959 28.2896H26.6459V21.0667C26.6459 19.3854 26.0584 18.2437 24.5938 18.2437C23.475 18.2437 22.8105 19.0167 22.5167 19.7604C22.4084 20.025 22.3813 20.4 22.3813 20.7729V28.2875H18.3292V19.4125C18.3292 17.7854 18.2771 16.425 18.223 15.2542H21.7417L21.9271 17.0646H22.0084C22.5417 16.2146 23.848 14.9604 26.0334 14.9604C28.698 14.9604 30.6959 16.7458 30.6959 20.5833V28.2896Z" fill="#FB6535"/>
</svg>
