<svg width="489" height="49" viewBox="0 0 489 49" fill="none" xmlns="http://www.w3.org/2000/svg">
<path fill-rule="evenodd" clip-rule="evenodd" d="M24.4527 48.6268H16.5019L17.2016 37.0028H23.7531L24.4527 48.6268ZM10.7813 38.5532L6.4282 48.6268H0L4.34907 38.5532H10.7813ZM30.1733 38.5532L34.5224 48.6268H40.9547L36.6055 38.5532H30.1733ZM51.7042 31.9382H45.3117V39.5789H51.7042V31.9382ZM11.8825 35.9971H5.45425L10.0696 25.3072H16.5019L11.8825 35.9971ZM29.0681 35.9971H35.5004L30.8809 25.3072H24.4527L29.0681 35.9971ZM51.7042 30.1135H45.3117V17.9567H51.7042V30.1135ZM11.8825 12.6258H5.45425L10.0696 23.3195H16.5019L11.8825 12.6258ZM29.0681 12.6258H35.5004L30.8809 23.3195H24.4527L29.0681 12.6258ZM51.7042 16.1321V8.49145H45.3117V16.1321H51.7042ZM24.4527 0H16.5019L17.2016 11.624H23.7531L24.4527 0ZM10.7813 10.0697L6.4282 0H0L4.34907 10.0697H10.7813ZM30.1733 10.0697L34.5224 0H40.9547L36.6055 10.0697H30.1733Z" fill="#141414" fill-opacity="0.3"/>
<path fill-rule="evenodd" clip-rule="evenodd" d="M80.1208 48.6268H72.17L72.8697 37.0028H79.4212L80.1208 48.6268ZM66.4493 38.5532L62.0963 48.6268H55.6681L60.0172 38.5532H66.4493ZM85.8414 38.5532L90.1905 48.6268H96.6228L92.2736 38.5532H85.8414ZM107.372 31.9382H100.98V39.5789H107.372V31.9382ZM67.5505 35.9971H61.1223L65.7377 25.3072H72.17L67.5505 35.9971ZM84.7362 35.9971H91.1685L86.549 25.3072H80.1208L84.7362 35.9971ZM107.372 30.1135H100.98V17.9567H107.372V30.1135ZM67.5505 12.6258H61.1223L65.7377 23.3195H72.17L67.5505 12.6258ZM84.7362 12.6258H91.1685L86.549 23.3195H80.1208L84.7362 12.6258ZM107.372 16.1321V8.49145H100.98V16.1321H107.372ZM80.1208 0H72.17L72.8697 11.624H79.4212L80.1208 0ZM66.4493 10.0697L62.0963 0H55.6681L60.0172 10.0697H66.4493ZM85.8414 10.0697L90.1905 0H96.6228L92.2736 10.0697H85.8414Z" fill="#141414" fill-opacity="0.3"/>
<path fill-rule="evenodd" clip-rule="evenodd" d="M135.749 48.6268H127.798L128.497 37.0028H135.049L135.749 48.6268ZM122.077 38.5532L117.724 48.6268H111.296L115.645 38.5532H122.077ZM141.469 38.5532L145.818 48.6268H152.25L147.901 38.5532H141.469ZM163 31.9382H156.607V39.5789H163V31.9382ZM123.178 35.9971H116.75L121.365 25.3072H127.798L123.178 35.9971ZM140.364 35.9971H146.796L142.177 25.3072H135.749L140.364 35.9971ZM163 30.1135H156.607V17.9567H163V30.1135ZM123.178 12.6258H116.75L121.365 23.3195H127.798L123.178 12.6258ZM140.364 12.6258H146.796L142.177 23.3195H135.749L140.364 12.6258ZM163 16.1321V8.49145H156.607V16.1321H163ZM135.749 0H127.798L128.497 11.624H135.049L135.749 0ZM122.077 10.0697L117.724 0H111.296L115.645 10.0697H122.077ZM141.469 10.0697L145.818 0H152.25L147.901 10.0697H141.469Z" fill="#141414" fill-opacity="0.3"/>
<path fill-rule="evenodd" clip-rule="evenodd" d="M191.453 48.6268H183.502L184.202 37.0028H190.753L191.453 48.6268ZM177.781 38.5532L173.428 48.6268H167L171.349 38.5532H177.781ZM197.173 38.5532L201.522 48.6268H207.955L203.605 38.5532H197.173ZM218.704 31.9382H212.312V39.5789H218.704V31.9382ZM178.882 35.9971H172.454L177.07 25.3072H183.502L178.882 35.9971ZM196.068 35.9971H202.5L197.881 25.3072H191.453L196.068 35.9971ZM218.704 30.1135H212.312V17.9567H218.704V30.1135ZM178.882 12.6258H172.454L177.07 23.3195H183.502L178.882 12.6258ZM196.068 12.6258H202.5L197.881 23.3195H191.453L196.068 12.6258ZM218.704 16.1321V8.49145H212.312V16.1321H218.704ZM191.453 0H183.502L184.202 11.624H190.753L191.453 0ZM177.781 10.0697L173.428 0H167L171.349 10.0697H177.781ZM197.173 10.0697L201.522 0H207.955L203.605 10.0697H197.173Z" fill="#141414" fill-opacity="0.3"/>
<path fill-rule="evenodd" clip-rule="evenodd" d="M247.121 48.6268H239.17L239.87 37.0028H246.421L247.121 48.6268ZM233.449 38.5532L229.096 48.6268H222.668L227.017 38.5532H233.449ZM252.841 38.5532L257.19 48.6268H263.623L259.274 38.5532H252.841ZM274.372 31.9382H267.98V39.5789H274.372V31.9382ZM234.551 35.9971H228.122L232.738 25.3072H239.17L234.551 35.9971ZM251.736 35.9971H258.169L253.549 25.3072H247.121L251.736 35.9971ZM274.372 30.1135H267.98V17.9567H274.372V30.1135ZM234.551 12.6258H228.122L232.738 23.3195H239.17L234.551 12.6258ZM251.736 12.6258H258.169L253.549 23.3195H247.121L251.736 12.6258ZM274.372 16.1321V8.49145H267.98V16.1321H274.372ZM247.121 0H239.17L239.87 11.624H246.421L247.121 0ZM233.449 10.0697L229.096 0H222.668L227.017 10.0697H233.449ZM252.841 10.0697L257.19 0H263.623L259.274 10.0697H252.841Z" fill="#141414" fill-opacity="0.3"/>
<path fill-rule="evenodd" clip-rule="evenodd" d="M302.749 48.6268H294.798L295.497 37.0028H302.049L302.749 48.6268ZM289.077 38.5532L284.724 48.6268H278.296L282.645 38.5532H289.077ZM308.469 38.5532L312.818 48.6268H319.25L314.901 38.5532H308.469ZM330 31.9382H323.607V39.5789H330V31.9382ZM290.178 35.9971H283.75L288.365 25.3072H294.798L290.178 35.9971ZM307.364 35.9971H313.796L309.177 25.3072H302.749L307.364 35.9971ZM330 30.1135H323.607V17.9567H330V30.1135ZM290.178 12.6258H283.75L288.365 23.3195H294.798L290.178 12.6258ZM307.364 12.6258H313.796L309.177 23.3195H302.749L307.364 12.6258ZM330 16.1321V8.49145H323.607V16.1321H330ZM302.749 0H294.798L295.497 11.624H302.049L302.749 0ZM289.077 10.0697L284.724 0H278.296L282.645 10.0697H289.077ZM308.469 10.0697L312.818 0H319.25L314.901 10.0697H308.469Z" fill="#141414" fill-opacity="0.3"/>
<path fill-rule="evenodd" clip-rule="evenodd" d="M358.453 48.6268H350.502L351.202 37.0028H357.753L358.453 48.6268ZM344.781 38.5532L340.428 48.6268H334L338.349 38.5532H344.781ZM364.173 38.5532L368.522 48.6268H374.955L370.605 38.5532H364.173ZM385.704 31.9382H379.312V39.5789H385.704V31.9382ZM345.882 35.9971H339.454L344.07 25.3072H350.502L345.882 35.9971ZM363.068 35.9971H369.5L364.881 25.3072H358.453L363.068 35.9971ZM385.704 30.1135H379.312V17.9567H385.704V30.1135ZM345.882 12.6258H339.454L344.07 23.3195H350.502L345.882 12.6258ZM363.068 12.6258H369.5L364.881 23.3195H358.453L363.068 12.6258ZM385.704 16.1321V8.49145H379.312V16.1321H385.704ZM358.453 0H350.502L351.202 11.624H357.753L358.453 0ZM344.781 10.0697L340.428 0H334L338.349 10.0697H344.781ZM364.173 10.0697L368.522 0H374.955L370.605 10.0697H364.173Z" fill="#141414" fill-opacity="0.3"/>
<path fill-rule="evenodd" clip-rule="evenodd" d="M414.121 48.6268H406.17L406.87 37.0028H413.421L414.121 48.6268ZM400.449 38.5532L396.096 48.6268H389.668L394.017 38.5532H400.449ZM419.841 38.5532L424.19 48.6268H430.623L426.274 38.5532H419.841ZM441.372 31.9382H434.98V39.5789H441.372V31.9382ZM401.551 35.9971H395.122L399.738 25.3072H406.17L401.551 35.9971ZM418.736 35.9971H425.169L420.549 25.3072H414.121L418.736 35.9971ZM441.372 30.1135H434.98V17.9567H441.372V30.1135ZM401.551 12.6258H395.122L399.738 23.3195H406.17L401.551 12.6258ZM418.736 12.6258H425.169L420.549 23.3195H414.121L418.736 12.6258ZM441.372 16.1321V8.49145H434.98V16.1321H441.372ZM414.121 0H406.17L406.87 11.624H413.421L414.121 0ZM400.449 10.0697L396.096 0H389.668L394.017 10.0697H400.449ZM419.841 10.0697L424.19 0H430.623L426.274 10.0697H419.841Z" fill="#141414" fill-opacity="0.3"/>
<path fill-rule="evenodd" clip-rule="evenodd" d="M469.749 48.6268H461.798L462.497 37.0028H469.049L469.749 48.6268ZM456.077 38.5532L451.724 48.6268H445.296L449.645 38.5532H456.077ZM475.469 38.5532L479.818 48.6268H486.251L481.901 38.5532H475.469ZM497 31.9382H490.608V39.5789H497V31.9382ZM457.178 35.9971H450.75L455.366 25.3072H461.798L457.178 35.9971ZM474.364 35.9971H480.796L476.177 25.3072H469.749L474.364 35.9971ZM497 30.1135H490.608V17.9567H497V30.1135ZM457.178 12.6258H450.75L455.366 23.3195H461.798L457.178 12.6258ZM474.364 12.6258H480.796L476.177 23.3195H469.749L474.364 12.6258ZM497 16.1321V8.49145H490.608V16.1321H497ZM469.749 0H461.798L462.497 11.624H469.049L469.749 0ZM456.077 10.0697L451.724 0H445.296L449.645 10.0697H456.077ZM475.469 10.0697L479.818 0H486.251L481.901 10.0697H475.469Z" fill="#141414" fill-opacity="0.3"/>
</svg>
