<svg width="43" height="42" viewBox="0 0 43 42" fill="none" xmlns="http://www.w3.org/2000/svg">
<path d="M14.4722 0C14.1233 0 13.7886 0.138616 13.5419 0.385356C13.2952 0.632095 13.1565 0.966746 13.1565 1.31569V7.79151H6.5781C6.22916 7.79151 5.89451 7.93013 5.64777 8.17687C5.40103 8.4236 5.26242 8.75826 5.26242 9.1072V19.7985L0.962744 20.9958C0.778252 21.0472 0.607207 21.1382 0.461555 21.2626C0.315904 21.3869 0.199158 21.5416 0.119472 21.7158C0.0397871 21.8899 -0.000916004 22.0794 0.000205674 22.2709C0.00132735 22.4624 0.0442472 22.6514 0.125967 22.8246L4.86771 32.9001C5.44673 32.2017 6.24868 31.7241 7.13859 31.5476L3.16784 23.114L19.6297 18.5249C20.5541 18.2672 21.5314 18.2672 22.4558 18.5249L38.9204 23.1088L34.868 31.5292C35.7596 31.6773 36.5732 32.1269 37.1731 32.8027L41.9754 22.8351C42.059 22.6616 42.1036 22.4718 42.1058 22.2792C42.1081 22.0866 42.068 21.8958 41.9885 21.7204C41.9089 21.5449 41.7918 21.3891 41.6454 21.2639C41.499 21.1387 41.3269 21.0472 41.1412 20.9958L36.8389 19.7985V9.1072C36.8389 8.75826 36.7003 8.4236 36.4536 8.17687C36.2069 7.93013 35.8722 7.79151 35.5233 7.79151H28.9448V1.31832C28.9448 0.969378 28.8062 0.634727 28.5595 0.387988C28.3127 0.141248 27.9781 0.00263119 27.6291 0.00263119H14.4722V0ZM26.3134 7.79151H15.7879V2.63401H26.3134V7.79151ZM34.2076 10.4229V19.067L23.1584 15.9882C21.7726 15.6022 20.3077 15.6022 18.9219 15.9882L7.89379 19.0643V10.4229H34.2076Z" fill="#F9F9F9"/>
<path d="M35.492 35.1316L35.4841 35.1052C35.4165 34.833 35.2636 34.5896 35.0477 34.4104C34.8319 34.2312 34.5645 34.1257 34.2845 34.1092C34.0045 34.0928 33.7265 34.1662 33.4912 34.3189C33.2559 34.4716 33.0755 34.6955 32.9764 34.9579L32.9633 34.9868C32.9527 35.0131 32.937 35.0605 32.9106 35.1184C32.5754 35.8727 32.1438 36.5803 31.6265 37.2235C30.6845 38.3813 29.3767 39.3681 27.6295 39.3681C25.8822 39.3681 24.5718 38.3787 23.6245 37.2209C23.0755 36.5403 22.6222 35.7877 22.2772 34.9842L22.2641 34.9526C22.1683 34.7034 21.999 34.4892 21.7787 34.3385C21.5583 34.1878 21.2973 34.1076 21.0303 34.1088C20.7633 34.1099 20.503 34.1923 20.2839 34.3449C20.0648 34.4975 19.8974 34.7131 19.8037 34.9632L19.7906 34.9895C19.7801 35.0158 19.7643 35.0631 19.738 35.121C19.4047 35.8744 18.9748 36.5811 18.4591 37.2235C17.5223 38.3813 16.2198 39.3681 14.4726 39.3681C12.7253 39.3681 11.4202 38.3813 10.4781 37.2235C9.9305 36.5429 9.47895 35.7903 9.13614 34.9868L9.12562 34.9605V34.9553C9.02677 34.6928 8.84664 34.4688 8.61151 34.3159C8.37637 34.163 8.09854 34.0893 7.81855 34.1055C7.53855 34.1216 7.27105 34.2268 7.05506 34.4057C6.83907 34.5846 6.68591 34.8279 6.61791 35.1L6.61265 35.121L6.57581 35.2447C6.33556 35.9691 5.98112 36.6504 5.52589 37.263C4.71806 38.3392 3.43132 39.3681 1.31569 39.3681C0.966746 39.3681 0.632096 39.5067 0.385357 39.7534C0.138617 40.0002 0 40.3348 0 40.6838C0 41.0327 0.138617 41.3674 0.385357 41.6141C0.632096 41.8608 0.966746 41.9995 1.31569 41.9995C4.46282 41.9995 6.46529 40.3969 7.63099 38.8418C7.76256 38.6629 7.88887 38.4866 7.99939 38.3103C8.13359 38.4997 8.27831 38.6892 8.4362 38.8813C9.63084 40.3548 11.6149 41.9995 14.4726 41.9995C17.3303 41.9995 19.309 40.3548 20.5037 38.8813C20.701 38.6366 20.88 38.3945 21.0405 38.1576C21.2063 38.3945 21.3878 38.6392 21.5852 38.8839C22.7877 40.3575 24.7718 41.9995 27.6295 41.9995C30.4871 41.9995 32.4712 40.3548 33.6658 38.8813C33.8185 38.6971 33.9606 38.5076 34.0921 38.3234C34.2053 38.5024 34.3289 38.6813 34.4605 38.8602C35.6288 40.4285 37.6366 42.0363 40.8021 41.9995C40.9749 41.9974 41.1456 41.9613 41.3044 41.8933C41.4633 41.8252 41.6071 41.7266 41.7278 41.6029C41.8486 41.4793 41.9437 41.3331 42.0079 41.1727C42.0721 41.0123 42.1041 40.8408 42.102 40.668C42.1 40.4952 42.0639 40.3245 41.9958 40.1657C41.9278 40.0069 41.8292 39.863 41.7055 39.7423C41.5819 39.6216 41.4357 39.5264 41.2753 39.4622C41.1148 39.398 40.9433 39.366 40.7706 39.3681C38.6576 39.3944 37.3761 38.3682 36.5735 37.2893C36.1184 36.6717 35.7657 35.9849 35.5289 35.2552L35.492 35.1289V35.1316Z" fill="#F9F9F9"/>
</svg>
